<svg width="22" height="22" viewBox="0 0 22 22" fill="none" xmlns="http://www.w3.org/2000/svg">
<path d="M0 4.125C0 3.36445 0.702232 2.75 1.57143 2.75H20.4286C21.2978 2.75 22 3.36445 22 4.125C22 4.88555 21.2978 5.5 20.4286 5.5H1.57143C0.702232 5.5 0 4.88555 0 4.125ZM0 11C0 10.2395 0.702232 9.625 1.57143 9.625H20.4286C21.2978 9.625 22 10.2395 22 11C22 11.7605 21.2978 12.375 20.4286 12.375H1.57143C0.702232 12.375 0 11.7605 0 11ZM22 17.875C22 18.6355 21.2978 19.25 20.4286 19.25H1.57143C0.702232 19.25 0 18.6355 0 17.875C0 17.1145 0.702232 16.5 1.57143 16.5H20.4286C21.2978 16.5 22 17.1145 22 17.875Z" fill="#FAFAFA"/>
</svg>
