<svg width="22" height="22" viewBox="0 0 22 22" fill="none" xmlns="http://www.w3.org/2000/svg">
<g clip-path="url(#clip0_26_15)">
<path d="M0 4.125C0 1.84766 2.11161 0 4.71429 0H9.42857V8.19414C9.42857 8.76992 10.1897 9.09219 10.7054 8.73125L13.3571 6.875L16.0089 8.73125C16.5246 9.09219 17.2857 8.76992 17.2857 8.19414V0H18.8571H20.4286C21.2978 0 22 0.614453 22 1.375V15.125C22 15.8855 21.2978 16.5 20.4286 16.5V19.25C21.2978 19.25 22 19.8645 22 20.625C22 21.3855 21.2978 22 20.4286 22H18.8571H4.71429C2.11161 22 0 20.1523 0 17.875V4.125ZM3.14286 17.875C3.14286 18.6355 3.84509 19.25 4.71429 19.25H17.2857V16.5H4.71429C3.84509 16.5 3.14286 17.1145 3.14286 17.875Z" fill="#FAFAFA"/>
</g>
<defs>
<clipPath id="clip0_26_15">
<rect width="22" height="22" fill="white"/>
</clipPath>
</defs>
</svg>
