<svg width="22" height="22" viewBox="0 0 22 22" fill="none" xmlns="http://www.w3.org/2000/svg">
<g clip-path="url(#clip0_23_6)">
<path d="M11 11C12.6671 11 14.2659 10.4205 15.4447 9.38909C16.6235 8.35764 17.2857 6.95869 17.2857 5.5C17.2857 4.04131 16.6235 2.64236 15.4447 1.61091C14.2659 0.579463 12.6671 0 11 0C9.33292 0 7.73413 0.579463 6.55533 1.61091C5.37653 2.64236 4.71429 4.04131 4.71429 5.5C4.71429 6.95869 5.37653 8.35764 6.55533 9.38909C7.73413 10.4205 9.33292 11 11 11ZM8.7558 13.0625C3.91875 13.0625 0 16.4914 0 20.7238C0 21.4285 0.653125 22 1.45848 22H20.5415C21.3469 22 22 21.4285 22 20.7238C22 16.4914 18.0813 13.0625 13.2442 13.0625H8.7558Z" fill="#172A3A"/>
</g>
<defs>
<clipPath id="clip0_23_6">
<rect width="22" height="22" fill="white"/>
</clipPath>
</defs>
</svg>
