<svg width="22" height="22" viewBox="0 0 22 22" fill="none" xmlns="http://www.w3.org/2000/svg">
<g clip-path="url(#clip0_23_10)">
<path d="M0 1.03125C0 0.459766 0.408681 0 0.916667 0H2.65451C3.49479 0 4.23958 0.55 4.58715 1.375H20.2851C21.2896 1.375 22.0229 2.44922 21.7594 3.54063L20.1934 10.0848C19.8687 11.434 18.7802 12.375 17.5389 12.375H6.51979L6.72604 13.5996C6.81007 14.0852 7.18819 14.4375 7.62743 14.4375H18.6389C19.1469 14.4375 19.5556 14.8973 19.5556 15.4688C19.5556 16.0402 19.1469 16.5 18.6389 16.5H7.62743C6.3059 16.5 5.17153 15.443 4.92708 13.9863L2.95625 2.3418C2.92951 2.17852 2.80347 2.0625 2.65451 2.0625H0.916667C0.408681 2.0625 0 1.60273 0 1.03125ZM4.88889 19.9375C4.88889 19.6666 4.93631 19.3984 5.02844 19.1482C5.12058 18.898 5.25562 18.6706 5.42586 18.4791C5.5961 18.2876 5.79821 18.1356 6.02064 18.032C6.24307 17.9283 6.48147 17.875 6.72222 17.875C6.96298 17.875 7.20138 17.9283 7.42381 18.032C7.64624 18.1356 7.84834 18.2876 8.01859 18.4791C8.18883 18.6706 8.32387 18.898 8.416 19.1482C8.50813 19.3984 8.55556 19.6666 8.55556 19.9375C8.55556 20.2084 8.50813 20.4766 8.416 20.7268C8.32387 20.977 8.18883 21.2044 8.01859 21.3959C7.84834 21.5874 7.64624 21.7394 7.42381 21.843C7.20138 21.9467 6.96298 22 6.72222 22C6.48147 22 6.24307 21.9467 6.02064 21.843C5.79821 21.7394 5.5961 21.5874 5.42586 21.3959C5.25562 21.2044 5.12058 20.977 5.02844 20.7268C4.93631 20.4766 4.88889 20.2084 4.88889 19.9375ZM17.7222 17.875C18.2085 17.875 18.6748 18.0923 19.0186 18.4791C19.3624 18.8659 19.5556 19.3905 19.5556 19.9375C19.5556 20.4845 19.3624 21.0091 19.0186 21.3959C18.6748 21.7827 18.2085 22 17.7222 22C17.236 22 16.7697 21.7827 16.4259 21.3959C16.082 21.0091 15.8889 20.4845 15.8889 19.9375C15.8889 19.3905 16.082 18.8659 16.4259 18.4791C16.7697 18.0923 17.236 17.875 17.7222 17.875Z" fill="#172A3A"/>
</g>
<defs>
<clipPath id="clip0_23_10">
<rect width="22" height="22" fill="white"/>
</clipPath>
</defs>
</svg>
