<svg width="22" height="22" viewBox="0 0 22 22" fill="none" xmlns="http://www.w3.org/2000/svg">
<path d="M2.04531 12.9078L9.80977 20.1566C10.132 20.4574 10.5574 20.625 11 20.625C11.4426 20.625 11.868 20.4574 12.1902 20.1566L19.9547 12.9078C21.2609 11.6918 22 9.98592 22 8.20272V7.9535C22 4.94999 19.8301 2.38905 16.8695 1.89491C14.9102 1.56835 12.9164 2.20858 11.5156 3.60936L11 4.12499L10.4844 3.60936C9.08359 2.20858 7.08984 1.56835 5.13047 1.89491C2.16992 2.38905 0 4.94999 0 7.9535V8.20272C0 9.98592 0.739062 11.6918 2.04531 12.9078Z" fill="#172A3A"/>
</svg>
