<svg width="18" height="18" viewBox="0 0 18 18" fill="none" xmlns="http://www.w3.org/2000/svg">
<path d="M8.57812 2.95312L8.96836 3.375L9.39023 2.95382C10.568 1.80597 12.1992 1.28355 13.8023 1.55039C16.2246 1.95398 18 4.05 18 6.50742V6.71132C18 8.17031 17.3953 9.56601 16.3266 10.5609L9.97383 16.4918C9.71016 16.7379 9.36211 16.875 9 16.875C8.63789 16.875 8.28984 16.7379 8.02617 16.4918L1.67309 10.5609C0.605742 9.56601 0 8.17031 0 6.71132V6.50742C0 4.05 1.77609 1.95398 4.19766 1.55039C5.76914 1.28355 7.43203 1.80597 8.57812 2.95312C8.57812 2.95347 8.54648 2.95312 8.57812 2.95312ZM8.96836 5.76211L7.38633 4.11679C6.62344 3.38484 5.54063 3.0375 4.47539 3.21468C2.86699 3.48293 1.6875 4.87617 1.6875 6.50742V6.71132C1.6875 7.70273 2.09918 8.65195 2.82445 9.32695L9 15.0926L15.177 9.32695C15.9012 8.65195 16.3125 7.70273 16.3125 6.71132V6.50742C16.3125 4.87617 15.1313 3.48293 13.5246 3.21468C12.4594 3.0375 11.3766 3.38484 10.6137 4.11679L8.96836 5.76211Z" fill="#FFB6B9"/>
</svg>
