<svg width="18" height="18" viewBox="0 0 18 18" fill="none" xmlns="http://www.w3.org/2000/svg">
<path d="M1.67344 10.5609L8.02617 16.4918C8.28984 16.7379 8.63789 16.875 9 16.875C9.36211 16.875 9.71016 16.7379 9.97383 16.4918L16.3266 10.5609C17.3953 9.56601 18 8.17031 18 6.71133V6.50742C18 4.05 16.2246 1.95469 13.8023 1.55039C12.1992 1.2832 10.568 1.80703 9.42188 2.95312L9 3.375L8.57812 2.95312C7.43203 1.80703 5.80078 1.2832 4.19766 1.55039C1.77539 1.95469 0 4.05 0 6.50742V6.71133C0 8.17031 0.604687 9.56601 1.67344 10.5609Z" fill="#FFB6B9"/>
</svg>
