<svg width="22" height="22" viewBox="0 0 22 22" fill="none" xmlns="http://www.w3.org/2000/svg">
<g clip-path="url(#clip0_28_23)">
<path d="M6.28571 0C7.15491 0 7.85714 0.614453 7.85714 1.375V2.75H14.1429V1.375C14.1429 0.614453 14.8451 0 15.7143 0C16.5835 0 17.2857 0.614453 17.2857 1.375V2.75H19.6429C20.9442 2.75 22 3.67383 22 4.8125V6.875H0V4.8125C0 3.67383 1.0558 2.75 2.35714 2.75H4.71429V1.375C4.71429 0.614453 5.41652 0 6.28571 0ZM0 8.25H22V19.9375C22 21.0762 20.9442 22 19.6429 22H2.35714C1.0558 22 0 21.0762 0 19.9375V8.25ZM3.14286 11.6875V13.0625C3.14286 13.4406 3.49643 13.75 3.92857 13.75H5.5C5.93214 13.75 6.28571 13.4406 6.28571 13.0625V11.6875C6.28571 11.3094 5.93214 11 5.5 11H3.92857C3.49643 11 3.14286 11.3094 3.14286 11.6875ZM9.42857 11.6875V13.0625C9.42857 13.4406 9.78214 13.75 10.2143 13.75H11.7857C12.2179 13.75 12.5714 13.4406 12.5714 13.0625V11.6875C12.5714 11.3094 12.2179 11 11.7857 11H10.2143C9.78214 11 9.42857 11.3094 9.42857 11.6875ZM16.5 11C16.0679 11 15.7143 11.3094 15.7143 11.6875V13.0625C15.7143 13.4406 16.0679 13.75 16.5 13.75H18.0714C18.5036 13.75 18.8571 13.4406 18.8571 13.0625V11.6875C18.8571 11.3094 18.5036 11 18.0714 11H16.5ZM3.14286 17.1875V18.5625C3.14286 18.9406 3.49643 19.25 3.92857 19.25H5.5C5.93214 19.25 6.28571 18.9406 6.28571 18.5625V17.1875C6.28571 16.8094 5.93214 16.5 5.5 16.5H3.92857C3.49643 16.5 3.14286 16.8094 3.14286 17.1875ZM10.2143 16.5C9.78214 16.5 9.42857 16.8094 9.42857 17.1875V18.5625C9.42857 18.9406 9.78214 19.25 10.2143 19.25H11.7857C12.2179 19.25 12.5714 18.9406 12.5714 18.5625V17.1875C12.5714 16.8094 12.2179 16.5 11.7857 16.5H10.2143ZM15.7143 17.1875V18.5625C15.7143 18.9406 16.0679 19.25 16.5 19.25H18.0714C18.5036 19.25 18.8571 18.9406 18.8571 18.5625V17.1875C18.8571 16.8094 18.5036 16.5 18.0714 16.5H16.5C16.0679 16.5 15.7143 16.8094 15.7143 17.1875Z" fill="#172A3A"/>
</g>
<defs>
<clipPath id="clip0_28_23">
<rect width="22" height="22" fill="white"/>
</clipPath>
</defs>
</svg>
