<svg width="14" height="12" viewBox="0 0 14 12" fill="none" xmlns="http://www.w3.org/2000/svg">
<g clip-path="url(#clip0_126_2)">
<path d="M6.99757 0C7.22118 0 7.42535 0.121875 7.52257 0.316406L9.18993 3.62813L12.9135 4.15781C13.1323 4.18828 13.3146 4.33594 13.3826 4.53984C13.4507 4.74375 13.3948 4.96406 13.2392 5.11406L10.5389 7.69687L11.1757 11.3438C11.2122 11.5547 11.1222 11.768 10.9424 11.8945C10.7625 12.0211 10.5219 12.0352 10.3274 11.9344L6.99757 10.2188L3.67014 11.932C3.47326 12.0328 3.23507 12.0187 3.05521 11.8922C2.87535 11.7656 2.78298 11.5523 2.81944 11.3414L3.45625 7.69453L0.755901 5.11406C0.597915 4.96406 0.544443 4.74141 0.612499 4.53984C0.680554 4.33828 0.862846 4.19062 1.0816 4.15781L4.80521 3.62813L6.47257 0.316406C6.57222 0.121875 6.77396 0 6.99757 0ZM6.99757 1.85156L5.72153 4.3875C5.63646 4.55391 5.47361 4.67109 5.2816 4.69922L2.40625 5.10703L4.4941 7.10156C4.62778 7.23047 4.69097 7.41328 4.65937 7.59375L4.16597 10.3992L6.72292 9.08203C6.89549 8.99297 7.10208 8.99297 7.27222 9.08203L9.82916 10.3992L9.33819 7.59609C9.3066 7.41563 9.36736 7.23281 9.50347 7.10391L11.5913 5.10938L8.71597 4.69922C8.52639 4.67109 8.36111 4.55625 8.27604 4.3875L6.99757 1.85156Z" fill="#F7B32B"/>
</g>
<defs>
<clipPath id="clip0_126_2">
<rect width="14" height="12" fill="white"/>
</clipPath>
</defs>
</svg>
