<svg width="14" height="12" viewBox="0 0 14 12" fill="none" xmlns="http://www.w3.org/2000/svg">
<g clip-path="url(#clip0_29_59)">
<path d="M7.70243 0.421875C7.57361 0.164062 7.30139 0 7.00243 0C6.70347 0 6.43368 0.164062 6.30243 0.421875L4.73958 3.52266L1.24931 4.01953C0.957639 4.06172 0.714583 4.25859 0.624653 4.52812C0.534722 4.79766 0.607639 5.09531 0.816667 5.29453L3.34931 7.71094L2.75139 11.1258C2.70278 11.407 2.82431 11.693 3.06493 11.8594C3.30556 12.0258 3.62396 12.0469 3.88646 11.9133L7.00486 10.3078L10.1233 11.9133C10.3858 12.0469 10.7042 12.0281 10.9448 11.8594C11.1854 11.6906 11.3069 11.407 11.2583 11.1258L10.658 7.71094L13.1906 5.29453C13.3997 5.09531 13.475 4.79766 13.3826 4.52812C13.2903 4.25859 13.0497 4.06172 12.758 4.01953L9.26528 3.52266L7.70243 0.421875Z" fill="#F7B32B"/>
</g>
<defs>
<clipPath id="clip0_29_59">
<rect width="14" height="12" fill="white"/>
</clipPath>
</defs>
</svg>
