<svg width="16" height="20" viewBox="0 0 16 20" fill="none" xmlns="http://www.w3.org/2000/svg">
<g clip-path="url(#clip0_136_2)">
<path d="M4.82857 0.691406C5.02143 0.265625 5.41786 0 5.85 0H10.15C10.5821 0 10.9786 0.265625 11.1714 0.691406L11.4286 1.25H14.8571C15.4893 1.25 16 1.80859 16 2.5C16 3.19141 15.4893 3.75 14.8571 3.75H1.14286C0.510714 3.75 0 3.19141 0 2.5C0 1.80859 0.510714 1.25 1.14286 1.25H4.57143L4.82857 0.691406ZM1.14286 5H14.8571V17.5C14.8571 18.8789 13.8321 20 12.5714 20H3.42857C2.16786 20 1.14286 18.8789 1.14286 17.5V5ZM4.57143 7.5C4.25714 7.5 4 7.78125 4 8.125V16.875C4 17.2188 4.25714 17.5 4.57143 17.5C4.88571 17.5 5.14286 17.2188 5.14286 16.875V8.125C5.14286 7.78125 4.88571 7.5 4.57143 7.5ZM8 7.5C7.68571 7.5 7.42857 7.78125 7.42857 8.125V16.875C7.42857 17.2188 7.68571 17.5 8 17.5C8.31429 17.5 8.57143 17.2188 8.57143 16.875V8.125C8.57143 7.78125 8.31429 7.5 8 7.5ZM11.4286 7.5C11.1143 7.5 10.8571 7.78125 10.8571 8.125V16.875C10.8571 17.2188 11.1143 17.5 11.4286 17.5C11.7429 17.5 12 17.2188 12 16.875V8.125C12 7.78125 11.7429 7.5 11.4286 7.5Z" fill="#FFB6B9"/>
</g>
<defs>
<clipPath id="clip0_136_2">
<rect width="16" height="20" fill="white"/>
</clipPath>
</defs>
</svg>
